<svg width="80" height="26" viewBox="0 0 100 26" fill="none" xmlns="http://www.w3.org/2000/svg">
<path d="M14.7966 12.3008C14.8074 11.4661 15.0291 10.6477 15.4411 9.92176C15.8531 9.19581 16.4421 8.58587 17.1532 8.1487C16.7015 7.50354 16.1055 6.9726 15.4127 6.59804C14.7199 6.22349 13.9492 6.01565 13.162 5.99102C11.4828 5.81476 9.85485 6.99585 8.99914 6.99585C8.12687 6.99585 6.80937 6.00852 5.39064 6.03771C4.47297 6.06735 3.57862 6.33421 2.79474 6.81227C2.01086 7.29033 1.36419 7.96328 0.917721 8.76558C-1.01628 12.114 0.426311 17.035 2.27892 19.7417C3.20582 21.067 4.2891 22.5475 5.70655 22.495C7.09361 22.4374 7.61165 21.6105 9.28595 21.6105C10.9447 21.6105 11.4307 22.495 12.8769 22.4616C14.3653 22.4374 15.3031 21.1303 16.1975 19.7924C16.8634 18.8481 17.3759 17.8044 17.7159 16.6999C16.8512 16.3342 16.1133 15.722 15.5941 14.9397C15.075 14.1574 14.7976 13.2396 14.7966 12.3008Z" fill="white"/>
<path d="M12.065 4.2109C12.8766 3.23669 13.2764 1.98451 13.1796 0.720276C11.9397 0.850496 10.7945 1.44306 9.97198 2.37989C9.56984 2.83755 9.26184 3.36999 9.06559 3.94676C8.86935 4.52353 8.7887 5.13332 8.82827 5.74128C9.44841 5.74766 10.0619 5.61325 10.6226 5.34816C11.1832 5.08307 11.6764 4.69422 12.065 4.2109Z" fill="white"/>
<path d="M32.33 19.1396H27.5966L26.4599 22.4961H24.455L28.9384 10.0781H31.0214L35.5048 22.4961H33.4657L32.33 19.1396ZM28.0868 17.5908H31.8388L29.9892 12.1435H29.9375L28.0868 17.5908Z" fill="white"/>
<path d="M45.1874 17.9698C45.1874 20.7832 43.6816 22.5908 41.4091 22.5908C40.8334 22.621 40.2609 22.4884 39.7571 22.2082C39.2533 21.9281 38.8386 21.5117 38.5605 21.0068H38.5175V25.4912H36.6591V13.4424H38.4579V14.9483H38.4921C38.7831 14.4458 39.2048 14.0316 39.7124 13.7498C40.22 13.4679 40.7946 13.329 41.3749 13.3477C43.6727 13.3477 45.1874 15.1641 45.1874 17.9698ZM43.2773 17.9698C43.2773 16.1368 42.33 14.9317 40.8847 14.9317C39.4647 14.9317 38.5097 16.1621 38.5097 17.9698C38.5097 19.794 39.4647 21.0157 40.8847 21.0157C42.33 21.0157 43.2773 19.8194 43.2773 17.9698Z" fill="white"/>
<path d="M55.1523 17.9697C55.1523 20.7832 53.6464 22.5908 51.374 22.5908C50.7983 22.621 50.2258 22.4883 49.722 22.2082C49.2183 21.9281 48.8035 21.5117 48.5254 21.0068H48.4824V25.4912H46.624V13.4424H48.4228V14.9483H48.457C48.7479 14.4458 49.1696 14.0316 49.6773 13.7498C50.1849 13.4679 50.7595 13.329 51.3398 13.3477C53.6377 13.3477 55.1523 15.1641 55.1523 17.9697ZM53.2421 17.9697C53.2421 16.1367 52.2949 14.9317 50.8496 14.9317C49.4296 14.9317 48.4746 16.1621 48.4746 17.9697C48.4746 19.794 49.4296 21.0157 50.8496 21.0157C52.2949 21.0157 53.2422 19.8194 53.2422 17.9697H53.2421Z" fill="white"/>
<path d="M61.7382 19.0361C61.8759 20.2676 63.0722 21.0761 64.7069 21.0761C66.2733 21.0761 67.4003 20.2675 67.4003 19.1572C67.4003 18.1933 66.7206 17.6162 65.1112 17.2207L63.5019 16.833C61.2216 16.2822 60.163 15.2158 60.163 13.4853C60.163 11.3427 62.0302 9.87103 64.6815 9.87103C67.3055 9.87103 69.1044 11.3427 69.1649 13.4853H67.2889C67.1766 12.246 66.1522 11.498 64.6552 11.498C63.1581 11.498 62.1337 12.2548 62.1337 13.3564C62.1337 14.2343 62.788 14.7509 64.3886 15.1464L65.7567 15.4823C68.3046 16.0849 69.3632 17.1083 69.3632 18.9247C69.3632 21.248 67.5126 22.703 64.5692 22.703C61.8153 22.703 59.9559 21.2821 59.8358 19.036L61.7382 19.0361Z" fill="white"/>
<path d="M73.374 11.2998V13.4424H75.0956V14.9141H73.374V19.9053C73.374 20.6807 73.7187 21.042 74.4755 21.042C74.6799 21.0384 74.884 21.0241 75.0868 20.999V22.4619C74.7466 22.5255 74.4007 22.5543 74.0546 22.5478C72.2216 22.5478 71.5068 21.8593 71.5068 20.1035V14.9141H70.1904V13.4424H71.5067V11.2998H73.374Z" fill="white"/>
<path d="M76.0928 17.9697C76.0928 15.1211 77.7705 13.3311 80.3867 13.3311C83.0117 13.3311 84.6816 15.1211 84.6816 17.9697C84.6816 20.8262 83.0205 22.6084 80.3867 22.6084C77.7539 22.6084 76.0928 20.8262 76.0928 17.9697ZM82.7881 17.9697C82.7881 16.0156 81.8926 14.8623 80.3867 14.8623C78.8808 14.8623 77.9863 16.0244 77.9863 17.9697C77.9863 19.9316 78.8808 21.0762 80.3867 21.0762C81.8926 21.0762 82.788 19.9316 82.788 17.9697H82.7881Z" fill="white"/>
<path d="M86.2138 13.4424H87.9863V14.9834H88.0293C88.1492 14.5021 88.4311 14.0768 88.8277 13.7789C89.2243 13.481 89.7114 13.3287 90.207 13.3476C90.4212 13.3469 90.6347 13.3702 90.8437 13.417V15.1553C90.5733 15.0726 90.2913 15.0347 90.0087 15.043C89.7387 15.032 89.4696 15.0796 89.2197 15.1825C88.9699 15.2854 88.7453 15.4411 88.5613 15.639C88.3773 15.8369 88.2384 16.0723 88.1539 16.3289C88.0695 16.5856 88.0416 16.8575 88.0722 17.126V22.4961H86.2138L86.2138 13.4424Z" fill="white"/>
<path d="M99.4121 19.8369C99.1621 21.4805 97.5615 22.6084 95.5136 22.6084C92.8798 22.6084 91.2451 20.8437 91.2451 18.0127C91.2451 15.1729 92.8886 13.3311 95.4355 13.3311C97.9404 13.3311 99.5156 15.0518 99.5156 17.7969V18.4336H93.121V18.5459C93.0915 18.8791 93.1332 19.2148 93.2434 19.5306C93.3536 19.8464 93.5297 20.1352 93.7601 20.3778C93.9904 20.6203 94.2698 20.8111 94.5795 20.9374C94.8892 21.0637 95.2223 21.1226 95.5566 21.1103C95.9958 21.1515 96.4365 21.0498 96.8132 20.8203C97.1899 20.5909 97.4825 20.246 97.6474 19.8369L99.4121 19.8369ZM93.1298 17.1348H97.6562C97.6729 16.8352 97.6275 16.5354 97.5228 16.2541C97.4181 15.9729 97.2564 15.7164 97.0479 15.5006C96.8394 15.2849 96.5885 15.1145 96.311 15.0003C96.0336 14.8861 95.7355 14.8305 95.4355 14.8369C95.1329 14.8351 94.8329 14.8933 94.5528 15.008C94.2728 15.1227 94.0182 15.2918 93.8039 15.5054C93.5895 15.7191 93.4196 15.973 93.3039 16.2527C93.1882 16.5323 93.129 16.8321 93.1298 17.1348V17.1348Z" fill="white"/>
<path d="M27.8539 0.730953C28.2436 0.702994 28.6345 0.761854 28.9986 0.903287C29.3627 1.04472 29.6909 1.2652 29.9595 1.54883C30.2281 1.83245 30.4304 2.17215 30.5518 2.54342C30.6732 2.91469 30.7107 3.30828 30.6616 3.69579C30.6616 5.60204 29.6313 6.69779 27.8539 6.69779H25.6987V0.730953H27.8539ZM26.6254 5.85395H27.7504C28.0288 5.87059 28.3074 5.82495 28.566 5.72033C28.8245 5.61572 29.0565 5.45477 29.245 5.2492C29.4335 5.04364 29.5737 4.79863 29.6556 4.53201C29.7375 4.26539 29.7588 3.98388 29.7182 3.70795C29.7559 3.43312 29.7324 3.15335 29.6492 2.88868C29.5661 2.62402 29.4255 2.38102 29.2374 2.17709C29.0494 1.97316 28.8185 1.81335 28.5614 1.70911C28.3044 1.60488 28.0274 1.55879 27.7504 1.57416H26.6254V5.85395Z" fill="white"/>
<path d="M31.7084 4.44429C31.6801 4.14837 31.714 3.8498 31.8078 3.56773C31.9016 3.28566 32.0534 3.02632 32.2533 2.80634C32.4533 2.58636 32.697 2.41059 32.9688 2.29032C33.2407 2.17004 33.5347 2.10791 33.8319 2.10791C34.1292 2.10791 34.4232 2.17004 34.6951 2.29032C34.9669 2.41059 35.2106 2.58636 35.4106 2.80634C35.6105 3.02632 35.7623 3.28566 35.8561 3.56773C35.9499 3.8498 35.9838 4.14837 35.9555 4.44429C35.9843 4.74051 35.9509 5.03949 35.8573 5.32202C35.7637 5.60454 35.612 5.86436 35.412 6.08477C35.212 6.30519 34.9681 6.48132 34.696 6.60186C34.4239 6.72239 34.1296 6.78466 33.8319 6.78466C33.5343 6.78466 33.24 6.72239 32.9679 6.60186C32.6957 6.48132 32.4518 6.30519 32.2519 6.08477C32.0519 5.86436 31.9002 5.60454 31.8066 5.32202C31.713 5.03949 31.6796 4.74051 31.7084 4.44429ZM35.0414 4.44429C35.0414 3.46822 34.6029 2.89742 33.8334 2.89742C33.0609 2.89742 32.6264 3.46822 32.6264 4.4443C32.6264 5.42819 33.061 5.99459 33.8334 5.99459C34.6029 5.99458 35.0414 5.42427 35.0414 4.44429H35.0414Z" fill="white"/>
<path d="M41.601 6.69776H40.6791L39.7485 3.38134H39.6782L38.7514 6.69776H37.8383L36.5971 2.19482H37.4985L38.3051 5.63083H38.3715L39.2973 2.19482H40.1498L41.0756 5.63083H41.1459L41.9487 2.19482H42.8373L41.601 6.69776Z" fill="white"/>
<path d="M43.8813 2.19481H44.7368V2.91014H44.8032C44.9158 2.65322 45.1058 2.43784 45.3467 2.29404C45.5876 2.15023 45.8673 2.08516 46.1469 2.10789C46.366 2.09141 46.586 2.12445 46.7906 2.20455C46.9952 2.28464 47.1792 2.40975 47.3289 2.57059C47.4785 2.73143 47.5901 2.92389 47.6553 3.13371C47.7205 3.34353 47.7377 3.56534 47.7055 3.78269V6.69769H46.8168V4.00585C46.8168 3.28222 46.5024 2.92235 45.8452 2.92235C45.6964 2.91542 45.5479 2.94074 45.4098 2.99657C45.2718 3.0524 45.1474 3.13742 45.0453 3.2458C44.9432 3.35419 44.8657 3.48337 44.8182 3.6245C44.7707 3.76564 44.7542 3.91537 44.77 4.06346V6.69774H43.8813L43.8813 2.19481Z" fill="white"/>
<path d="M49.1215 0.437012H50.0102V6.69775H49.1215V0.437012Z" fill="white"/>
<path d="M51.2455 4.44437C51.2172 4.14843 51.2511 3.84985 51.3449 3.56777C51.4388 3.28569 51.5906 3.02634 51.7906 2.80635C51.9905 2.58636 52.2342 2.4106 52.5061 2.29032C52.778 2.17004 53.072 2.10791 53.3693 2.10791C53.6666 2.10791 53.9606 2.17004 54.2324 2.29032C54.5043 2.4106 54.748 2.58636 54.948 2.80635C55.148 3.02634 55.2997 3.28569 55.3936 3.56777C55.4875 3.84985 55.5213 4.14843 55.4931 4.44437C55.5219 4.74061 55.4884 5.03959 55.3948 5.32212C55.3012 5.60464 55.1495 5.86445 54.9494 6.08486C54.7494 6.30527 54.5055 6.48139 54.2334 6.60192C53.9612 6.72245 53.6669 6.78472 53.3693 6.78472C53.0716 6.78472 52.7773 6.72245 52.5052 6.60192C52.233 6.48139 51.9891 6.30527 51.7891 6.08486C51.5891 5.86445 51.4374 5.60464 51.3438 5.32212C51.2502 5.03959 51.2167 4.74061 51.2455 4.44437ZM54.5785 4.44437C54.5785 3.4683 54.14 2.8975 53.3705 2.8975C52.598 2.8975 52.1635 3.4683 52.1635 4.44438C52.1635 5.42827 52.5981 5.99467 53.3705 5.99467C54.14 5.99466 54.5785 5.42435 54.5785 4.44437H54.5785Z" fill="white"/>
<path d="M56.4286 5.42437C56.4286 4.61382 57.0322 4.14654 58.1034 4.08013L59.3232 4.00982V3.62115C59.3232 3.14556 59.0087 2.87701 58.4013 2.87701C57.9052 2.87701 57.5615 3.05914 57.4628 3.3775H56.6025C56.6933 2.60406 57.4208 2.10797 58.4423 2.10797C59.5712 2.10797 60.2079 2.66997 60.2079 3.62115V6.69781H59.3525V6.065H59.2822C59.1394 6.29199 58.939 6.47704 58.7014 6.60125C58.4638 6.72546 58.1975 6.78439 57.9296 6.772C57.7406 6.79166 57.5495 6.7715 57.3688 6.7128C57.188 6.6541 57.0216 6.55817 56.8801 6.4312C56.7387 6.30423 56.6255 6.14904 56.5477 5.97562C56.47 5.80221 56.4294 5.61442 56.4286 5.42437ZM59.3232 5.0396V4.66314L58.2236 4.73345C57.6035 4.77495 57.3222 4.98589 57.3222 5.38286C57.3222 5.78813 57.6738 6.02397 58.1572 6.02397C58.2988 6.03831 58.4419 6.02401 58.5779 5.98192C58.7139 5.93983 58.8401 5.87081 58.9489 5.77897C59.0577 5.68713 59.1469 5.57434 59.2112 5.44732C59.2755 5.3203 59.3136 5.18164 59.3232 5.0396Z" fill="white"/>
<path d="M61.3759 4.44435C61.3759 3.0215 62.1074 2.12013 63.2451 2.12013C63.5265 2.10716 63.8058 2.17457 64.0503 2.31446C64.2948 2.45436 64.4945 2.66096 64.6259 2.91013H64.6923V0.437012H65.581V6.69775H64.7294V5.98632H64.6591C64.5175 6.23381 64.3109 6.43785 64.0617 6.57633C63.8124 6.71481 63.53 6.78246 63.2451 6.77196C62.0996 6.77201 61.3759 5.87062 61.3759 4.44435ZM62.2939 4.44435C62.2939 5.39943 62.7441 5.97414 63.4971 5.97414C64.2461 5.97414 64.709 5.39114 64.709 4.44826C64.709 3.50978 64.2412 2.91847 63.4971 2.91847C62.749 2.91847 62.2939 3.49708 62.2939 4.44435H62.2939Z" fill="white"/>
<path d="M69.2577 4.44429C69.2294 4.14837 69.2633 3.8498 69.3571 3.56773C69.4509 3.28566 69.6027 3.02632 69.8026 2.80634C70.0026 2.58636 70.2463 2.41059 70.5181 2.29032C70.79 2.17004 71.084 2.10791 71.3813 2.10791C71.6785 2.10791 71.9725 2.17004 72.2444 2.29032C72.5162 2.41059 72.7599 2.58636 72.9599 2.80634C73.1598 3.02632 73.3116 3.28566 73.4054 3.56773C73.4992 3.8498 73.5331 4.14837 73.5048 4.44429C73.5336 4.74051 73.5002 5.03949 73.4066 5.32202C73.313 5.60454 73.1613 5.86436 72.9613 6.08477C72.7614 6.30519 72.5175 6.48132 72.2453 6.60186C71.9732 6.72239 71.6789 6.78466 71.3813 6.78466C71.0836 6.78466 70.7893 6.72239 70.5172 6.60186C70.2451 6.48132 70.0012 6.30519 69.8012 6.08477C69.6012 5.86436 69.4495 5.60454 69.3559 5.32202C69.2623 5.03949 69.2289 4.74051 69.2577 4.44429ZM72.5907 4.44429C72.5907 3.46822 72.1522 2.89742 71.3827 2.89742C70.6103 2.89742 70.1757 3.46822 70.1757 4.4443C70.1757 5.42819 70.6103 5.99459 71.3827 5.99459C72.1523 5.99458 72.5907 5.42427 72.5907 4.44429Z" fill="white"/>
<path d="M74.6972 2.19481H75.5527V2.91014H75.6191C75.7317 2.65322 75.9217 2.43784 76.1626 2.29404C76.4035 2.15023 76.6832 2.08516 76.9628 2.10789C77.1819 2.09141 77.4019 2.12445 77.6065 2.20455C77.8111 2.28464 77.9951 2.40975 78.1448 2.57059C78.2945 2.73143 78.406 2.92389 78.4712 3.13371C78.5364 3.34353 78.5536 3.56534 78.5214 3.78269V6.69769H77.6328V4.00585C77.6328 3.28222 77.3183 2.92235 76.6611 2.92235C76.5123 2.91542 76.3638 2.94074 76.2258 2.99657C76.0877 3.0524 75.9634 3.13742 75.8612 3.2458C75.7591 3.35419 75.6816 3.48337 75.6341 3.6245C75.5866 3.76564 75.5701 3.91537 75.5859 4.06346V6.69774H74.6972V2.19481Z" fill="white"/>
<path d="M83.5429 1.07373V2.21533H84.5185V2.96387H83.5429V5.2793C83.5429 5.75098 83.7373 5.95752 84.1796 5.95752C84.2929 5.95715 84.406 5.95031 84.5185 5.93701V6.67724C84.3589 6.70579 84.1972 6.72098 84.0351 6.72265C83.0468 6.72265 82.6533 6.37499 82.6533 5.50683V2.96383H81.9384V2.21529H82.6533V1.07373H83.5429Z" fill="white"/>
<path d="M85.7324 0.437012H86.6132V2.91846H86.6835C86.8017 2.65914 86.9969 2.44255 87.2426 2.2982C87.4883 2.15386 87.7725 2.08877 88.0565 2.11182C88.2745 2.09996 88.4924 2.13635 88.6947 2.21839C88.8969 2.30043 89.0786 2.42611 89.2267 2.58644C89.3749 2.74678 89.4858 2.93783 89.5516 3.14597C89.6173 3.3541 89.6364 3.57419 89.6073 3.79053V6.69776H88.7178V4.00976C88.7178 3.29052 88.3828 2.92626 87.7549 2.92626C87.6021 2.91374 87.4485 2.93473 87.3047 2.98779C87.1609 3.04084 87.0305 3.12467 86.9225 3.23341C86.8145 3.34214 86.7316 3.47316 86.6795 3.6173C86.6274 3.76144 86.6075 3.91521 86.6211 4.06786V6.69774H85.7324L85.7324 0.437012Z" fill="white"/>
<path d="M94.789 5.48194C94.6683 5.89348 94.4067 6.24947 94.05 6.48762C93.6933 6.72577 93.2642 6.83092 92.8379 6.78467C92.5412 6.7925 92.2464 6.73568 91.9739 6.61816C91.7014 6.50063 91.4577 6.32521 91.2598 6.10407C91.0619 5.88293 90.9145 5.62137 90.8278 5.33755C90.7411 5.05373 90.7172 4.75444 90.7578 4.46046C90.7183 4.16558 90.7426 3.86565 90.8291 3.58097C90.9156 3.2963 91.0622 3.03353 91.2591 2.81046C91.4559 2.58739 91.6984 2.40922 91.9702 2.28801C92.2419 2.1668 92.5364 2.10539 92.834 2.10792C94.0869 2.10792 94.8427 2.96392 94.8427 4.37792V4.68801H91.6631V4.73781C91.6491 4.90306 91.6699 5.06939 91.724 5.22614C91.7782 5.38289 91.8644 5.5266 91.9773 5.64805C92.0903 5.76951 92.2273 5.86603 92.3797 5.93143C92.5321 5.99683 92.6965 6.02965 92.8623 6.02781C93.0748 6.05333 93.2902 6.01506 93.481 5.91785C93.6717 5.82064 93.8293 5.6689 93.9336 5.48191L94.789 5.48194ZM91.663 4.03077H93.9374C93.9486 3.87965 93.9281 3.72785 93.8771 3.58513C93.8262 3.44241 93.7459 3.31193 93.6416 3.20207C93.5372 3.09222 93.411 3.00541 93.271 2.94724C93.1311 2.88906 92.9805 2.8608 92.829 2.86427C92.6753 2.86234 92.5228 2.8912 92.3804 2.94915C92.2381 3.00709 92.1087 3.09295 92.0001 3.20166C91.8914 3.31038 91.8056 3.43974 91.7477 3.58214C91.6899 3.72453 91.6611 3.87708 91.6631 4.03077H91.663Z" fill="white"/>
</svg>
