<svg width="90" height="29" viewBox="0 0 117 29" fill="none" xmlns="http://www.w3.org/2000/svg">
<path d="M38.4181 4.24326C38.4363 4.6102 38.3796 4.97701 38.2515 5.32134C38.1234 5.66567 37.9265 5.98033 37.6729 6.24615C37.3887 6.54091 37.0455 6.77235 36.6657 6.92532C36.2858 7.07829 35.878 7.14935 35.4688 7.13385C35.0571 7.13753 34.6487 7.05887 34.2678 6.90248C33.8868 6.74609 33.541 6.51512 33.2506 6.22316C32.9602 5.9312 32.7311 5.58414 32.5767 5.20236C32.4224 4.82059 32.3459 4.41182 32.3518 4.00006C32.3459 3.5883 32.4224 3.17952 32.5768 2.79774C32.7312 2.41596 32.9603 2.06888 33.2506 1.77689C33.541 1.4849 33.8868 1.25388 34.2678 1.09742C34.6487 0.94096 35.0571 0.862203 35.4688 0.865778C35.8922 0.864499 36.3114 0.950096 36.7003 1.11728C37.0616 1.26372 37.3832 1.49342 37.6388 1.78767L37.1114 2.31547C36.9105 2.07892 36.6578 1.89171 36.373 1.76828C36.0882 1.64485 35.7789 1.5885 35.4688 1.60357C35.1568 1.60196 34.8476 1.66335 34.5598 1.78406C34.272 1.90477 34.0115 2.08232 33.794 2.30608C33.5764 2.52984 33.4063 2.7952 33.2937 3.08628C33.1811 3.37735 33.1285 3.68815 33.1389 4.00006C33.1314 4.46726 33.2629 4.92614 33.5166 5.31852C33.7703 5.7109 34.1348 6.0191 34.5639 6.20405C34.993 6.389 35.4673 6.44237 35.9268 6.35737C36.3862 6.27238 36.8101 6.05286 37.1446 5.72665C37.4525 5.39489 37.631 4.96357 37.6475 4.51126H35.4688V3.79056H38.3761C38.4036 3.93991 38.4177 4.09141 38.4181 4.24326Z" fill="white" stroke="white" stroke-width="0.2" stroke-miterlimit="10"/>
<path d="M43.0275 1.73736H40.2951V3.63965H42.759V4.36044H40.2951V6.26273H43.0275V7.00003H39.5246V1.00006H43.0275V1.73736Z" fill="white" stroke="white" stroke-width="0.2" stroke-miterlimit="10"/>
<path d="M46.2785 7.00003H45.507V1.73736H43.8312V1.00006H47.9542V1.73736H46.2785V7.00003Z" fill="white" stroke="white" stroke-width="0.2" stroke-miterlimit="10"/>
<path d="M50.9376 7.00003V1.00006H51.7081V7.00003H50.9376Z" fill="white" stroke="white" stroke-width="0.2" stroke-miterlimit="10"/>
<path d="M55.128 7.00003H54.3565V1.73736H52.6808V1.00006H56.8038V1.73736H55.128V7.00003Z" fill="white" stroke="white" stroke-width="0.2" stroke-miterlimit="10"/>
<path d="M64.6089 6.22466C64.0249 6.8069 63.2339 7.13385 62.4092 7.13385C61.5846 7.13385 60.7935 6.8069 60.2095 6.22466C59.9206 5.93203 59.6935 5.5843 59.5417 5.20213C59.3898 4.81997 59.3164 4.41118 59.3257 4.00007C59.3164 3.58896 59.3898 3.18016 59.5417 2.798C59.6935 2.41584 59.9206 2.06811 60.2095 1.77548C60.4982 1.48675 60.841 1.25778 61.2182 1.10168C61.5955 0.945584 61.9998 0.865423 62.4081 0.865785C62.8164 0.866147 63.2205 0.947027 63.5975 1.10379C63.9745 1.26056 64.3169 1.49014 64.605 1.77938C64.8941 2.07123 65.1217 2.41819 65.2742 2.79966C65.4267 3.18112 65.501 3.58933 65.4927 4.00007C65.5018 4.41115 65.4282 4.81987 65.2764 5.20199C65.1246 5.58412 64.8976 5.93188 64.6089 6.22466ZM60.7788 5.72226C61.2114 6.15405 61.7976 6.39657 62.4087 6.39657C63.0199 6.39657 63.6061 6.15405 64.0386 5.72226C64.2604 5.49518 64.4339 5.22549 64.5485 4.92948C64.6631 4.63348 64.7166 4.31731 64.7056 4.00007C64.7166 3.68283 64.6631 3.36666 64.5485 3.07065C64.4339 2.77465 64.2604 2.50496 64.0386 2.27788C63.6061 1.84608 63.0199 1.60357 62.4087 1.60357C61.7976 1.60357 61.2114 1.84608 60.7788 2.27788C60.5573 2.50514 60.3842 2.77488 60.2697 3.07086C60.1552 3.36684 60.1019 3.68292 60.1128 4.00007C60.1019 4.31722 60.1552 4.6333 60.2697 4.92928C60.3842 5.22526 60.5573 5.495 60.7788 5.72226Z" fill="white" stroke="white" stroke-width="0.2" stroke-miterlimit="10"/>
<path d="M66.5747 7.00003V1.00006H67.5132L70.4292 5.66754H70.4624L70.4292 4.51124V1.00006H71.2007V7.00003H70.396L67.3452 2.10645H67.312L67.3452 3.26275V7.00003H66.5747Z" fill="white" stroke="white" stroke-width="0.2" stroke-miterlimit="10"/>
<path d="M59.1355 15.7516C58.295 15.7547 57.4743 16.0069 56.777 16.4762C56.0797 16.9455 55.537 17.6108 55.2176 18.3883C54.8982 19.1657 54.8162 20.0204 54.9822 20.8443C55.1481 21.6683 55.5544 22.4246 56.1499 23.0178C56.7454 23.611 57.5032 24.0145 58.3278 24.1773C59.1524 24.3401 60.0068 24.2549 60.783 23.9325C61.5592 23.6101 62.2225 23.065 62.6891 22.3659C63.1558 21.6668 63.4048 20.8452 63.4048 20.0046C63.413 19.4425 63.3081 18.8844 63.0963 18.3636C62.8845 17.8428 62.57 17.3699 62.1717 16.9731C61.7734 16.5763 61.2993 16.2636 60.7777 16.0538C60.2561 15.8439 59.6976 15.7412 59.1355 15.7516ZM59.1355 22.5823C58.6179 22.6192 58.1011 22.4994 57.6525 22.2386C57.204 21.9777 56.8443 21.5878 56.6204 21.1196C56.3965 20.6515 56.3188 20.1267 56.3973 19.6138C56.4758 19.1008 56.7069 18.6234 57.0605 18.2436C57.4142 17.8638 57.874 17.5993 58.3801 17.4845C58.8861 17.3697 59.4151 17.41 59.898 17.6C60.3808 17.79 60.7953 18.121 61.0875 18.5499C61.3796 18.9788 61.5359 19.4857 61.5359 20.0046C61.5516 20.3325 61.5016 20.6601 61.3887 20.9684C61.2759 21.2766 61.1025 21.5591 60.8788 21.7993C60.6552 22.0395 60.3857 22.2325 60.0863 22.367C59.7869 22.5015 59.4636 22.5747 59.1355 22.5823ZM49.8221 15.7516C48.9816 15.7547 48.1609 16.0069 47.4636 16.4761C46.7663 16.9454 46.2236 17.6108 45.9042 18.3882C45.5847 19.1656 45.5028 20.0203 45.6687 20.8443C45.8346 21.6683 46.241 22.4246 46.8364 23.0178C47.4319 23.611 48.1897 24.0145 49.0143 24.1773C49.8389 24.3401 50.6933 24.2549 51.4695 23.9326C52.2457 23.6102 52.909 23.065 53.3757 22.3659C53.8423 21.6668 54.0913 20.8452 54.0913 20.0046C54.0996 19.4425 53.9947 18.8844 53.7828 18.3636C53.571 17.8428 53.2566 17.3699 52.8583 16.9731C52.46 16.5763 51.9859 16.2637 51.4643 16.0538C50.9427 15.844 50.3843 15.7412 49.8221 15.7516ZM49.8221 22.5823C49.3045 22.6192 48.7878 22.4994 48.3392 22.2386C47.8906 21.9777 47.5309 21.5878 47.3071 21.1196C47.0832 20.6515 47.0054 20.1267 47.0839 19.6138C47.1624 19.1008 47.3935 18.6234 47.7472 18.2436C48.1008 17.8638 48.5606 17.5993 49.0667 17.4845C49.5728 17.3697 50.1017 17.41 50.5846 17.6C51.0675 17.79 51.482 18.121 51.7741 18.5499C52.0663 18.9788 52.2225 19.4857 52.2225 20.0046C52.2382 20.3325 52.1882 20.6602 52.0754 20.9684C51.9625 21.2766 51.7892 21.5591 51.5655 21.7993C51.3418 22.0395 51.0724 22.2325 50.7729 22.367C50.4735 22.5015 50.1503 22.5747 49.8221 22.5823ZM38.7434 17.0566V18.8608H43.0611C42.9988 19.7071 42.6525 20.5076 42.0783 21.1324C41.6456 21.5735 41.1253 21.9189 40.5509 22.1464C39.9764 22.374 39.3607 22.4785 38.7434 22.4534C37.4814 22.4363 36.2768 21.923 35.3904 21.0245C34.504 20.1261 34.0071 18.9147 34.0071 17.6526C34.0071 16.3904 34.504 15.179 35.3904 14.2806C36.2768 13.3821 37.4814 12.8688 38.7434 12.8517C39.9556 12.8358 41.1251 13.299 41.9978 14.1405L43.2705 12.8678C42.675 12.2783 41.9679 11.8136 41.1905 11.501C40.4131 11.1884 39.5812 11.0341 38.7434 11.0473C37.8679 11.0345 36.9986 11.196 36.186 11.5222C35.3735 11.8484 34.6339 12.3329 34.0102 12.9476C33.3866 13.5622 32.8914 14.2946 32.5533 15.1024C32.2153 15.9101 32.0413 16.777 32.0413 17.6526C32.0413 18.5282 32.2153 19.395 32.5533 20.2027C32.8914 21.0105 33.3866 21.7429 34.0102 22.3576C34.6339 22.9722 35.3735 23.4567 36.186 23.7829C36.9986 24.1091 37.8679 24.2706 38.7434 24.2578C39.5988 24.2933 40.4521 24.1465 41.2464 23.827C42.0408 23.5076 42.7582 23.0229 43.351 22.4051C44.4034 21.2564 44.9643 19.7414 44.9138 18.1843C44.9179 17.8061 44.8855 17.4285 44.817 17.0566H38.7434ZM84.0515 18.458C83.7959 17.6877 83.3093 17.0147 82.6579 16.5305C82.0065 16.0462 81.2218 15.7743 80.4105 15.7516C79.864 15.755 79.3239 15.8691 78.8228 16.0872C78.3218 16.3052 77.8701 16.6226 77.4951 17.0201C77.1202 17.4177 76.8297 17.8871 76.6413 18.4001C76.453 18.9131 76.3706 19.4589 76.3991 20.0046C76.3868 20.5638 76.4873 21.1197 76.6947 21.6392C76.902 22.1587 77.2119 22.631 77.6059 23.028C77.9999 23.425 78.4699 23.7385 78.9877 23.9498C79.5056 24.1611 80.0607 24.2659 80.62 24.2578C81.3206 24.2617 82.0113 24.0915 82.6299 23.7625C83.2485 23.4335 83.7757 22.956 84.1642 22.3729L82.7143 21.4063C82.4971 21.7671 82.1898 22.0651 81.8227 22.2713C81.4555 22.4775 81.0411 22.5846 80.62 22.5823C80.1867 22.5989 79.7584 22.4849 79.3907 22.2551C79.023 22.0253 78.7328 21.6903 78.5578 21.2935L84.2449 18.9414L84.0515 18.458ZM78.2518 19.8758C78.2318 19.5663 78.2737 19.2558 78.3751 18.9627C78.4765 18.6695 78.6353 18.3995 78.8423 18.1685C79.0494 17.9375 79.3004 17.7501 79.5807 17.6172C79.861 17.4844 80.165 17.4088 80.4749 17.3949C80.7976 17.3736 81.1194 17.4479 81.4001 17.6083C81.6809 17.7687 81.9082 18.0083 82.0538 18.297L78.2518 19.8758ZM73.628 24H75.4968V11.4985H73.628V24ZM70.567 16.7021H70.5026C70.2185 16.3934 69.8718 16.1489 69.4856 15.985C69.0994 15.8211 68.6827 15.7415 68.2633 15.7516C67.1666 15.7982 66.1303 16.2667 65.3708 17.0592C64.6113 17.8518 64.1873 18.907 64.1873 20.0047C64.1873 21.1024 64.6113 22.1576 65.3708 22.9501C66.1303 23.7426 67.1666 24.2111 68.2633 24.2578C68.6843 24.269 69.1028 24.1884 69.4895 24.0214C69.8763 23.8545 70.222 23.6053 70.5026 23.2912H70.567V23.9034C70.567 25.5306 69.6971 26.4005 68.2954 26.4005C67.8283 26.3893 67.3751 26.2393 66.9935 25.9696C66.6119 25.6999 66.3193 25.3227 66.1529 24.8861L64.5257 25.5628C64.8323 26.3095 65.355 26.9476 66.0266 27.3953C66.6982 27.8431 67.4883 28.0801 68.2954 28.076C70.4865 28.076 72.3392 26.7872 72.3392 23.6456V16.0093H70.567V16.7021ZM68.4244 22.5823C67.7785 22.5276 67.1767 22.2323 66.7381 21.7549C66.2995 21.2776 66.0561 20.6529 66.0561 20.0047C66.0561 19.3564 66.2995 18.7318 66.7381 18.2545C67.1767 17.7771 67.7785 17.4818 68.4244 17.4271C68.7458 17.4427 69.0607 17.523 69.3504 17.663C69.6401 17.803 69.8986 17.9998 70.1106 18.2419C70.3226 18.4839 70.4836 18.7662 70.5842 19.0718C70.6848 19.3774 70.7228 19.7001 70.6959 20.0207C70.7211 20.3394 70.6817 20.6598 70.5801 20.9628C70.4785 21.2659 70.3169 21.5454 70.1048 21.7845C69.8928 22.0236 69.6347 22.2175 69.3459 22.3546C69.0572 22.4917 68.7438 22.5692 68.4244 22.5823ZM92.8053 11.4987H88.3342V24H90.1998V19.2636H92.8053C93.3331 19.2926 93.8612 19.2136 94.3574 19.0316C94.8536 18.8495 95.3075 18.5682 95.6913 18.2049C96.0751 17.8415 96.3809 17.4037 96.5898 16.9182C96.7987 16.4327 96.9065 15.9097 96.9065 15.3812C96.9065 14.8526 96.7987 14.3296 96.5898 13.8441C96.3809 13.3586 96.0751 12.9208 95.6913 12.5575C95.3075 12.1941 94.8536 11.9128 94.3574 11.7308C93.8612 11.5487 93.3331 11.4697 92.8053 11.4987ZM92.8535 17.5239H90.1998V13.2386H92.8535C93.1386 13.2327 93.4221 13.2837 93.6872 13.3887C93.9523 13.4938 94.1938 13.6506 94.3975 13.8502C94.6013 14.0497 94.7631 14.2879 94.8736 14.5508C94.9841 14.8137 95.041 15.096 95.041 15.3812C95.041 15.6664 94.9841 15.9487 94.8736 16.2116C94.7631 16.4745 94.6013 16.7127 94.3975 16.9122C94.1938 17.1118 93.9523 17.2687 93.6872 17.3737C93.4221 17.4787 93.1386 17.5298 92.8535 17.5239ZM104.385 15.7286C103.704 15.6888 103.026 15.8487 102.435 16.1887C101.844 16.5287 101.364 17.0339 101.056 17.6425L102.712 18.334C102.877 18.032 103.125 17.7844 103.428 17.6216C103.731 17.4588 104.075 17.3878 104.417 17.4173C104.891 17.371 105.363 17.5144 105.731 17.8159C106.099 18.1173 106.332 18.5524 106.379 19.0255V19.1542C105.78 18.8359 105.112 18.6702 104.433 18.6717C102.648 18.6717 100.831 19.6528 100.831 21.4863C100.848 21.8727 100.943 22.2517 101.11 22.6008C101.276 22.9499 101.511 23.2619 101.801 23.5184C102.09 23.7749 102.428 23.9707 102.795 24.094C103.161 24.2174 103.549 24.2658 103.935 24.2365C104.405 24.2642 104.873 24.1654 105.292 23.9504C105.711 23.7354 106.064 23.4121 106.315 23.0142H106.379V23.9792H108.181V19.1864C108.181 16.967 106.524 15.7286 104.385 15.7286ZM104.16 22.5799C103.549 22.5799 102.696 22.2744 102.696 21.5184C102.696 20.5535 103.758 20.1835 104.675 20.1835C105.27 20.1677 105.859 20.3121 106.379 20.6017C106.311 21.144 106.048 21.6431 105.64 22.0067C105.232 22.3704 104.706 22.574 104.16 22.5799ZM114.743 16.002L112.604 21.4219H112.539L110.32 16.002H108.309L111.639 23.5771L109.741 27.7909H111.687L116.817 16.002H114.743ZM97.9358 24H99.8014V11.4987H97.9358V24Z" fill="white"/>
<path d="M1.43521 1.53805C1.1073 1.93012 0.941727 2.43275 0.972415 2.94295V25.0589C0.941638 25.5691 1.10722 26.0718 1.43521 26.4638L1.50921 26.5359L13.8982 14.1471V13.8548L1.50921 1.46545L1.43521 1.53805Z" fill="url(#paint0_linear_0_1)"/>
<path d="M18.0276 18.2785L13.8982 14.1472V13.8549L18.0286 9.72449L18.1217 9.77759L23.0145 12.5577C24.4121 13.3517 24.4121 14.6509 23.0145 15.4454L18.1217 18.2254L18.0276 18.2785Z" fill="url(#paint1_linear_0_1)"/>
<path d="M18.1216 18.2249L13.8981 14.001L1.43521 26.4639C1.71998 26.715 2.08363 26.8587 2.46317 26.8699C2.8427 26.8811 3.2142 26.7592 3.5133 26.5253L18.1216 18.2249Z" fill="url(#paint2_linear_0_1)"/>
<path d="M18.1216 9.77701L3.5133 1.47666C3.2142 1.24275 2.8427 1.12084 2.46317 1.13206C2.08363 1.14327 1.71998 1.2869 1.43521 1.53805L13.8981 14.001L18.1216 9.77701Z" fill="url(#paint3_linear_0_1)"/>
<path opacity="0.2" d="M18.0285 18.1319L3.5133 26.3792C3.22572 26.5981 2.87472 26.7175 2.51329 26.7195C2.15187 26.7214 1.79962 26.6057 1.50971 26.3899L1.43521 26.4644L1.50921 26.5365L1.50971 26.536C1.79957 26.7519 2.15184 26.8677 2.5133 26.8657C2.87475 26.8638 3.22577 26.7443 3.5133 26.5253L18.1216 18.2249L18.0285 18.1319Z" fill="#1D1D1D"/>
<path opacity="0.12" d="M1.43522 26.3182C1.10734 25.9261 0.941771 25.4235 0.972422 24.9133V25.0594C0.941752 25.5696 1.10732 26.0722 1.43522 26.4643L1.50972 26.3898L1.43522 26.3182Z" fill="#1D1D1D"/>
<path opacity="0.12" d="M23.0144 15.2987L18.0286 18.1319L18.1217 18.2249L23.0144 15.4448C23.3022 15.3199 23.5513 15.1201 23.7357 14.8662C23.9201 14.6124 24.033 14.3137 24.0627 14.0014C24.0009 14.2842 23.8739 14.5488 23.6919 14.774C23.51 14.9992 23.278 15.1788 23.0144 15.2987Z" fill="#1D1D1D"/>
<path opacity="0.25" d="M3.51336 1.62322L23.0145 12.7032C23.2781 12.823 23.5102 13.0027 23.6922 13.228C23.8741 13.4533 24.001 13.718 24.0628 14.001C24.0332 13.6885 23.9204 13.3897 23.736 13.1357C23.5516 12.8817 23.3024 12.6819 23.0145 12.5571L3.51336 1.47712C2.11577 0.683023 0.972473 1.34262 0.972473 2.94341V3.08951C0.972473 1.48882 2.11577 0.829223 3.51336 1.62322Z" fill="white"/>
<defs>
<linearGradient id="paint0_linear_0_1" x1="12.7995" y1="2.70976" x2="-3.98283" y2="19.4921" gradientUnits="userSpaceOnUse">
<stop stop-color="#00A0FF"/>
<stop offset="0.00657" stop-color="#00A1FF"/>
<stop offset="0.2601" stop-color="#00BEFF"/>
<stop offset="0.5122" stop-color="#00D2FF"/>
<stop offset="0.7604" stop-color="#00DFFF"/>
<stop offset="1" stop-color="#00E3FF"/>
</linearGradient>
<linearGradient id="paint1_linear_0_1" x1="24.8341" y1="14.0015" x2="0.637371" y2="14.0015" gradientUnits="userSpaceOnUse">
<stop stop-color="#FFE000"/>
<stop offset="0.4087" stop-color="#FFBD00"/>
<stop offset="0.7754" stop-color="#FFA500"/>
<stop offset="1" stop-color="#FF9C00"/>
</linearGradient>
<linearGradient id="paint2_linear_0_1" x1="15.8267" y1="16.2961" x2="-6.93148" y2="39.0543" gradientUnits="userSpaceOnUse">
<stop stop-color="#FF3A44"/>
<stop offset="1" stop-color="#C31162"/>
</linearGradient>
<linearGradient id="paint3_linear_0_1" x1="-1.70284" y1="-5.82373" x2="8.45963" y2="4.33874" gradientUnits="userSpaceOnUse">
<stop stop-color="#32A071"/>
<stop offset="0.0685" stop-color="#2DA771"/>
<stop offset="0.4762" stop-color="#15CF74"/>
<stop offset="0.8009" stop-color="#06E775"/>
<stop offset="1" stop-color="#00F076"/>
</linearGradient>
</defs>
</svg>
